<svg width="149" height="48" viewBox="0 0 149 48" fill="none" xmlns="http://www.w3.org/2000/svg">
<path fill-rule="evenodd" clip-rule="evenodd" d="M33.511 23.1824C33.511 32.1192 26.4422 39.364 17.7222 39.364C9.00247 39.364 1.93359 32.1192 1.93359 23.1824C1.93359 14.2454 9.00247 7.00048 17.7222 7.00048C26.4422 7.00048 33.511 14.2454 33.511 23.1824Z" fill="#D33833"/>
<path d="M2.57654 27.1902C2.57654 27.1902 1.43354 10.3154 16.9517 9.83323L15.8691 8.02521L7.44851 10.8578L5.04255 13.6301L2.93742 17.6681L1.73438 22.3689L2.09526 25.5028" fill="#EF3D3A"/>
<path d="M6.90868 12.1438C4.13851 14.9838 2.42431 18.905 2.42431 23.243C2.42431 27.5801 4.13851 31.5018 6.90868 34.3413C9.68018 37.1808 13.4997 38.933 17.7224 38.933C21.9451 38.933 25.7649 37.1808 28.5362 34.3413C31.3062 31.5018 33.0207 27.5801 33.0207 23.243C33.0207 18.905 31.3062 14.9838 28.5362 12.1438C25.7649 9.3048 21.9451 7.55265 17.7224 7.55229C13.4997 7.55265 9.68018 9.3048 6.90868 12.1438ZM6.20748 35.0282C3.26344 32.0114 1.44336 27.842 1.44336 23.243C1.44336 18.6432 3.26344 14.4743 6.20748 11.4572C9.15083 8.43967 13.2252 6.56927 17.7224 6.56982C22.2196 6.56927 26.2944 8.43967 29.2372 11.4572C32.1815 14.4743 34.0018 18.6436 34.0015 23.243C34.0018 27.842 32.1815 32.0114 29.2372 35.0282C26.2944 38.0456 22.2196 39.9158 17.7224 39.9158C13.2252 39.9158 9.15083 38.0456 6.20748 35.0282Z" fill="#231F20"/>
<path fill-rule="evenodd" clip-rule="evenodd" d="M24.3682 23.2722L21.9621 23.6339L18.7141 23.9955L16.6089 24.0557L14.5639 23.9955L13 23.5133L11.6166 22.0066L10.5339 18.933L10.2933 18.27L8.8498 17.788L8.0077 16.4018L7.40625 14.413L8.06797 12.6652L9.63169 12.1228L10.8948 12.7255L11.4964 14.0514L12.2182 13.9308L12.4587 13.6296L12.2182 12.2434L12.1579 10.4955L12.5188 8.08491L12.5047 6.70793L13.6014 4.95108L15.5262 3.56487L18.8946 2.11846L22.6236 2.66086L25.8716 5.01128L27.3754 7.42191L28.3377 9.16972L28.5783 13.509L27.8565 17.2456L26.5333 20.5602L25.2702 22.308" fill="#F0D6B7"/>
<path fill-rule="evenodd" clip-rule="evenodd" d="M22.323 33.6983L13.7218 34.0599V35.5063L14.4435 40.5687L14.0827 40.9907L8.06798 38.9415L7.64682 38.2183L7.04537 31.4082L5.66216 27.31L5.36133 26.3458L10.173 23.0312L11.6768 22.4284L13 24.0556L14.1428 25.0802L15.4662 25.502L16.0675 25.6828L16.7893 28.8166L17.3306 29.4796L18.7141 28.9974L17.7516 30.8658L22.9845 33.3367L22.323 33.6983Z" fill="#335061"/>
<path fill-rule="evenodd" clip-rule="evenodd" d="M8.06884 12.6651L9.63256 12.1227L10.8957 12.7255L11.4973 14.0513L12.219 13.9307L12.3995 13.2075L12.0386 11.8214L12.3995 8.50663L12.0986 6.69861L13.1813 5.433L15.5271 3.56477L14.8654 2.66077L11.5573 4.28798L10.1739 5.37279L9.39199 7.06021L8.18901 8.68743L7.82812 10.616L8.06884 12.6651Z" fill="#6D6B6D"/>
<path fill-rule="evenodd" clip-rule="evenodd" d="M10.5337 7.00001C10.5337 7.00001 11.4359 4.77018 15.0447 3.68537C18.6536 2.60056 15.2252 2.90178 15.2252 2.90178L11.3157 4.40858L9.8119 5.9152L9.15039 7.12061L10.5337 7.00001Z" fill="#DCD9D8"/>
<path fill-rule="evenodd" clip-rule="evenodd" d="M8.73034 12.2432C8.73034 12.2432 7.46724 8.0244 12.2791 7.42179L12.0986 6.69858L8.79061 7.48218L7.82812 10.616L8.06884 12.665L8.73034 12.2432Z" fill="#DCD9D8"/>
<path fill-rule="evenodd" clip-rule="evenodd" d="M10.6543 17.8482L11.4418 17.0836C11.4418 17.0836 11.7973 17.125 11.8573 17.5468C11.9174 17.9688 12.0978 21.7656 14.6842 23.8148C14.9201 24.0017 12.7596 23.5132 12.7596 23.5132L10.8347 20.5" fill="#F7E4CD"/>
<path fill-rule="evenodd" clip-rule="evenodd" d="M21.7217 16.7031C21.7217 16.7031 21.8619 14.8763 22.3529 15.0168C22.8439 15.1573 22.8439 15.6492 22.8439 15.6492C22.8439 15.6492 21.6515 16.4222 21.7217 16.7031Z" fill="#F7E4CD"/>
<path d="M26.7147 10.0136C26.7147 10.0136 25.7233 10.2233 25.632 11.0984C25.5407 11.9736 26.7147 11.2792 26.8951 11.219" fill="#F7E4CD"/>
<path d="M19.4367 10.0738C19.4367 10.0738 18.1133 10.2546 18.1133 11.0983C18.1133 11.9421 19.6171 11.8819 20.0381 11.5202" fill="#F7E4CD"/>
<path fill-rule="evenodd" clip-rule="evenodd" d="M11.2571 13.9911C11.2571 13.9911 8.97143 12.6049 8.73093 13.9309C8.49037 15.2568 7.94889 16.2212 9.09182 17.6072L8.30992 17.3662L7.58815 15.4979L7.34766 13.6899L8.73093 12.2433L10.2948 12.3639L11.197 13.0871L11.2571 13.9911Z" fill="#F7E4CD"/>
<path fill-rule="evenodd" clip-rule="evenodd" d="M12.3385 10.1943C12.3385 10.1943 13.361 4.89088 18.5338 3.86628C22.7925 3.02284 25.0296 4.04708 25.8717 5.01129C25.8717 5.01129 22.0824 0.491435 18.4735 1.87746C14.8647 3.26367 12.2183 5.79489 12.2783 7.42192C12.3808 10.1933 12.3385 10.1943 12.3385 10.1943Z" fill="#F7E4CD"/>
<path fill-rule="evenodd" clip-rule="evenodd" d="M26.2927 5.61397C26.2927 5.61397 24.5485 5.55376 24.4883 7.12077C24.4883 7.12077 24.4881 7.36177 24.6085 7.60278C24.6085 7.60278 25.9921 6.03578 26.834 6.87958" fill="#F7E4CD"/>
<path fill-rule="evenodd" clip-rule="evenodd" d="M18.6562 7.76595C18.6562 7.76595 18.3559 5.36075 16.3093 6.75907C14.9861 7.66308 15.1065 8.92869 15.347 9.1697C15.5876 9.41089 15.5221 9.89634 15.7053 9.56312C15.8883 9.22991 15.8281 8.14509 16.4898 7.84388C17.1514 7.54248 18.2361 7.20583 18.6562 7.76595Z" fill="#F7E4CD"/>
<path fill-rule="evenodd" clip-rule="evenodd" d="M13 24.0555L7.3462 26.5867C7.3462 26.5867 9.69197 35.9282 8.48891 38.821L7.64682 38.5198L7.5867 34.964L6.02305 28.2141L5.36133 26.3457L11.2557 22.3683L13 24.0555Z" fill="#49728B"/>
<path fill-rule="evenodd" clip-rule="evenodd" d="M13.5813 29.2224L14.3834 30.2031V33.8191H13.421C13.421 33.8191 13.3008 31.2879 13.3008 30.9864C13.3008 30.6851 13.421 29.6003 13.421 29.6003" fill="#49728B"/>
<path fill-rule="evenodd" clip-rule="evenodd" d="M13.6012 34.3615L10.8945 34.4819L11.6766 35.0243L13.6012 35.3257" fill="#49728B"/>
<path fill-rule="evenodd" clip-rule="evenodd" d="M22.8652 33.7588L25.0906 33.6985L25.632 39.2432L23.3463 39.5444L22.8652 33.7588Z" fill="#335061"/>
<path fill-rule="evenodd" clip-rule="evenodd" d="M23.4668 33.7588L26.8351 33.578C26.8351 33.578 28.2184 30.0825 28.2184 29.9017C28.2184 29.7209 29.4214 24.8393 29.4214 24.8393L26.7148 22.0069L26.1734 21.5247L24.7299 22.9711V28.5759L23.4668 33.7588Z" fill="#335061"/>
<path fill-rule="evenodd" clip-rule="evenodd" d="M24.9703 33.3368L22.8652 33.7586L23.1659 35.4462C23.9477 35.8078 25.2711 34.8434 25.2711 34.8434" fill="#49728B"/>
<path fill-rule="evenodd" clip-rule="evenodd" d="M25.0312 22.7902L29.2415 25.9241L29.3619 24.4777L26.174 21.5246L25.0312 22.7902Z" fill="#49728B"/>
<path fill-rule="evenodd" clip-rule="evenodd" d="M15.6897 45.632L14.4444 40.5688L13.8251 36.8329L13.7227 34.0599L19.3588 33.7593L22.8652 33.7587L22.5464 40.0874L23.0877 44.969L23.0276 45.873L18.4565 46.2346L15.6897 45.632Z" fill="white"/>
<path fill-rule="evenodd" clip-rule="evenodd" d="M22.0838 33.6984C22.0838 33.6984 21.7832 39.9662 22.6854 44.4259C22.6854 44.4259 20.881 45.5711 18.2344 45.8723L23.2869 45.6915L23.8883 45.3299L23.1665 35.4462L22.9861 33.3366" fill="#DCD9D8"/>
<path fill-rule="evenodd" clip-rule="evenodd" d="M25.7337 38.7615L28.0794 38.0985L32.5302 37.8575L33.1919 35.8085L31.9889 32.2526L30.6056 32.0718L28.6808 32.6745L26.8342 33.5779L25.8538 33.3977L25.0898 33.6985" fill="white"/>
<path fill-rule="evenodd" clip-rule="evenodd" d="M25.6914 37.5554C25.6914 37.5554 27.2551 36.8324 27.4958 36.8926L26.8343 33.5778L27.6162 33.2766C27.6162 33.2766 28.1575 36.4104 28.1575 36.772C28.1575 36.772 31.5257 36.9528 31.8265 36.9528C31.8265 36.9528 32.5483 35.5666 32.3678 34.1202L33.0295 36.0488L33.0896 37.1336L32.1273 38.58L31.0446 38.821L29.2402 38.7608L28.6388 37.9774L26.5335 38.2786L25.8718 38.5198" fill="#DCD9D8"/>
<path d="M23.3277 33.2773L22.0046 29.9023L20.6211 27.9135C20.6211 27.9135 20.9217 27.0697 21.3429 27.0697C21.764 27.0697 22.7263 27.0697 22.7263 27.0697L24.0495 27.5519L23.9293 29.7817L23.3277 33.2773Z" fill="white"/>
<path fill-rule="evenodd" clip-rule="evenodd" d="M23.5871 32.1316C23.5871 32.1316 21.9028 28.8773 21.9028 28.3951C21.9028 28.3951 22.2034 27.6719 22.6246 27.8527C23.0457 28.0335 23.948 28.5155 23.948 28.5155V27.3705L21.9028 26.9485L20.5195 27.1293L22.8653 32.674L23.3464 32.7344" fill="#DCD9D8"/>
<path d="M16.2302 24.177L14.5639 23.9955L13 23.5133V24.0557L13.7641 24.9001L16.17 25.9849" fill="white"/>
<path fill-rule="evenodd" clip-rule="evenodd" d="M13.5418 24.3576C13.5418 24.3576 15.4065 25.1412 16.0079 24.9604L16.0678 25.6829L14.3839 25.322L13.3613 24.5988L13.5418 24.3576Z" fill="#DCD9D8"/>
<path fill-rule="evenodd" clip-rule="evenodd" d="M25.7276 27.2749C24.707 27.2449 23.7849 27.1234 22.9776 26.8952C23.0325 26.5636 22.9298 26.2382 23.0123 25.9993C23.2373 25.837 23.6144 25.8395 23.9545 25.8014C23.6604 25.6565 23.2472 25.5992 22.9078 25.6829C22.8998 25.4528 22.7968 25.3101 22.7344 25.1301C23.3082 24.9248 24.6628 23.5795 25.4248 24.025C25.7878 24.2369 25.9421 25.4472 25.9703 26.0357C25.9937 26.5239 25.9261 27.0164 25.7276 27.2749Z" fill="#D33833"/>
<path d="M25.7276 27.2749C24.707 27.2449 23.7849 27.1234 22.9776 26.8952C23.0325 26.5636 22.9298 26.2382 23.0123 25.9993C23.2373 25.837 23.6144 25.8395 23.9545 25.8014C23.6604 25.6565 23.2472 25.5992 22.9078 25.6829C22.8998 25.4528 22.7968 25.3101 22.7344 25.1301C23.3082 24.9248 24.6628 23.5795 25.4248 24.025C25.7878 24.2369 25.9421 25.4472 25.9703 26.0357C25.9937 26.5239 25.9261 27.0164 25.7276 27.2749Z" stroke="#D33833" stroke-width="2.5"/>
<path fill-rule="evenodd" clip-rule="evenodd" d="M20.8476 25.6031C20.8449 25.6804 20.8417 25.7584 20.8386 25.8365C20.52 26.0462 20.0055 26.0437 19.6558 26.2199C20.1713 26.2425 20.5772 26.3669 20.9283 26.5423C20.9205 26.7372 20.9131 26.9319 20.9056 27.1268C20.3215 27.5275 19.7879 28.1242 19.1002 28.4999C18.775 28.6776 17.6339 29.1348 17.2879 29.054C17.0922 29.0085 17.0746 28.7651 16.9963 28.5357C16.8296 28.0444 16.4458 27.2625 16.4124 26.523C16.3697 25.589 16.2756 24.0236 17.2802 24.2159C18.0906 24.3709 19.0332 24.745 19.6607 25.0885C20.0441 25.2986 20.2659 25.5582 20.8476 25.6031Z" fill="#D33833"/>
<path d="M20.8476 25.6031C20.8449 25.6804 20.8417 25.7584 20.8386 25.8365C20.52 26.0462 20.0055 26.0437 19.6558 26.2199C20.1713 26.2425 20.5772 26.3669 20.9283 26.5423C20.9205 26.7372 20.9131 26.9319 20.9056 27.1268C20.3215 27.5275 19.7879 28.1242 19.1002 28.4999C18.775 28.6776 17.6339 29.1348 17.2879 29.054C17.0922 29.0085 17.0746 28.7651 16.9963 28.5357C16.8296 28.0444 16.4458 27.2625 16.4124 26.523C16.3697 25.589 16.2756 24.0236 17.2802 24.2159C18.0906 24.3709 19.0332 24.745 19.6607 25.0885C20.0441 25.2986 20.2659 25.5582 20.8476 25.6031Z" stroke="#D33833" stroke-width="2.5"/>
<path fill-rule="evenodd" clip-rule="evenodd" d="M21.4267 26.7176C21.3376 26.2089 21.2346 26.0637 21.2745 25.6198C22.6287 24.7151 22.8829 27.1738 21.4267 26.7176Z" fill="#D33833"/>
<path d="M21.4267 26.7176C21.3376 26.2089 21.2346 26.0637 21.2745 25.6198C22.6287 24.7151 22.8829 27.1738 21.4267 26.7176Z" stroke="#D33833" stroke-width="2.5"/>
<path fill-rule="evenodd" clip-rule="evenodd" d="M23.389 27.1299C23.389 27.1299 22.9678 26.5271 23.2686 26.3463C23.5694 26.1655 23.8702 26.3465 24.0507 26.0451C24.2311 25.7437 24.0507 25.5629 24.1108 25.2013C24.1709 24.8397 24.4718 24.7793 24.7725 24.7191C25.0731 24.6589 25.9154 24.5383 26.0356 24.8397L25.6747 23.7549L24.9529 23.5138L22.6672 24.8397L22.5469 25.5027V26.8285" fill="#EF3D3A"/>
<path fill-rule="evenodd" clip-rule="evenodd" d="M17.0736 29.1189C17.0014 28.1783 16.9249 27.2391 16.8398 26.2995C16.7125 24.8964 17.1762 25.1412 18.39 25.1412C18.5753 25.1412 19.5314 25.3627 19.5998 25.5028C19.9279 26.1742 19.0513 26.025 19.9777 26.5312C20.7597 26.9585 22.1412 26.2718 21.8252 25.322C21.6484 25.1109 20.9039 25.2562 20.637 25.1176C20.1671 24.8735 19.6972 24.6294 19.2273 24.3853C18.6295 24.0745 17.2477 23.6214 16.6103 24.0557C14.9953 25.1562 16.7123 27.9061 17.2884 29.0541" fill="#EF3D3A"/>
<path fill-rule="evenodd" clip-rule="evenodd" d="M18.6549 7.76582C17.0155 7.38324 16.2009 8.45323 15.704 9.56299C15.2603 9.45523 15.4369 8.85063 15.5489 8.54254C15.8424 7.734 17.0249 6.65768 17.9911 6.80359C18.4069 6.86633 18.9696 7.24728 18.6549 7.76582Z" fill="#231F20"/>
<path fill-rule="evenodd" clip-rule="evenodd" d="M26.6441 9.63651C26.6699 9.63759 26.696 9.63849 26.7218 9.63958C27.0923 10.4107 27.4129 11.2276 27.8803 11.9083C27.5672 12.6389 25.5096 13.2854 25.5414 11.9736C25.9864 11.7786 26.7545 11.9338 27.1489 11.6848C26.9209 11.0576 26.5917 10.5237 26.6441 9.63651Z" fill="#231F20"/>
<path fill-rule="evenodd" clip-rule="evenodd" d="M19.494 9.65652C19.8455 10.3022 19.9599 10.9805 20.4595 11.4685C20.6845 11.6882 21.1221 11.956 20.9052 12.5669C20.8545 12.711 20.484 13.0323 20.2702 13.0954C19.4891 13.3264 17.6689 13.1431 18.2853 12.1673C18.9313 12.1975 19.7996 12.5877 20.2825 12.1178C19.9117 11.5238 19.2506 10.3488 19.494 9.65652Z" fill="#231F20"/>
<path fill-rule="evenodd" clip-rule="evenodd" d="M26.3506 16.2185C25.1745 16.9755 23.863 17.7987 21.9359 17.6078C21.5241 17.2491 21.3671 16.4509 21.7672 15.9236C21.9754 16.2823 21.8446 16.9421 22.4249 17.0414C23.5184 17.2288 24.7911 16.3711 25.5776 16.0714C26.0653 15.2474 25.5356 14.9444 25.0962 14.4141C24.1967 13.3277 22.9901 11.9811 23.0339 10.3546C23.3975 10.0904 23.4289 10.7578 23.481 10.8793C23.9507 11.9807 25.1328 13.3893 25.9955 14.332C26.2074 14.5642 26.5562 14.7869 26.595 14.9404C26.7068 15.3868 26.3039 15.9216 26.3506 16.2185Z" fill="#231F20"/>
<path fill-rule="evenodd" clip-rule="evenodd" d="M10.8444 15.4217C10.4758 15.2109 10.388 14.2823 9.95521 14.2559C9.3367 14.2183 9.44948 15.4606 9.45195 16.187C9.02621 15.7997 8.95135 14.6073 9.26411 13.995C8.90766 13.8196 8.74849 14.1884 8.55078 14.3184C8.80488 12.4688 11.2511 13.4605 10.8444 15.4217Z" fill="#231F20"/>
<path fill-rule="evenodd" clip-rule="evenodd" d="M27.0993 16.9888C26.5519 18.033 25.7774 19.1829 24.1709 19.2163C24.1383 18.8791 24.1132 18.366 24.1727 18.163C25.4008 18.0447 26.159 17.4184 27.0993 16.9888Z" fill="#231F20"/>
<path fill-rule="evenodd" clip-rule="evenodd" d="M19.4023 17.6656C20.427 18.2055 22.3101 18.2636 23.7027 18.2227C23.7774 18.5284 23.7756 18.9061 23.7785 19.2789C21.9883 19.3684 19.8717 18.9246 19.4023 17.6656Z" fill="#231F20"/>
<path fill-rule="evenodd" clip-rule="evenodd" d="M19.2066 18.6725C19.9151 20.4551 22.3504 20.2499 24.404 20.2007C24.3136 20.4321 24.1176 20.7055 23.874 20.8044C23.216 21.0727 21.4009 21.2763 20.4873 20.7901C19.9079 20.4815 19.5356 19.7841 19.2182 19.3753C19.0649 19.1779 18.3015 18.6736 19.2066 18.6725Z" fill="#231F20"/>
<path fill-rule="evenodd" clip-rule="evenodd" d="M26.2639 28.5049C25.4324 29.9318 24.6369 31.3974 23.6504 32.656C24.064 31.4376 24.241 29.3982 24.3034 27.8436C25.1686 27.4379 25.9095 27.9349 26.2639 28.5049Z" fill="#81B0C4"/>
<path fill-rule="evenodd" clip-rule="evenodd" d="M30.7393 33.6334C29.8084 33.8201 29.1543 34.7266 28.2461 34.6685C28.7452 33.9635 29.6198 33.6663 30.7393 33.6334Z" fill="#231F20"/>
<path fill-rule="evenodd" clip-rule="evenodd" d="M31.15 35.0932C30.3913 35.1735 29.5001 35.2966 28.7305 35.2332C29.0948 34.6756 30.4985 34.868 31.15 35.0932Z" fill="#231F20"/>
<path fill-rule="evenodd" clip-rule="evenodd" d="M31.4127 36.3517C30.5599 36.3702 29.5 36.3531 28.6895 36.285C29.1689 35.769 30.8596 36.0935 31.4127 36.3517Z" fill="#231F20"/>
<path fill-rule="evenodd" clip-rule="evenodd" d="M24.6605 39.7958C24.7829 40.8689 25.2075 41.9562 25.1542 43.1314C24.6827 43.2907 24.4119 43.43 23.7802 43.4292C23.7356 42.4304 23.6022 40.9036 23.6421 39.9515C23.9528 39.9721 24.411 39.7291 24.6605 39.7958Z" fill="#DCD9D8"/>
<path fill-rule="evenodd" clip-rule="evenodd" d="M23.2857 23.9807C22.8575 24.2607 22.4928 24.6104 22.0816 24.9094C21.1696 24.9546 20.6719 24.8462 20.002 24.3215C20.013 24.2793 20.0803 24.2981 20.0828 24.2464C21.059 24.6824 22.2999 24.0689 23.2857 23.9807Z" fill="#F0D6B7"/>
<path fill-rule="evenodd" clip-rule="evenodd" d="M18.1602 30.6484C18.4284 29.4838 19.4793 28.8807 20.4337 28.2394C21.4187 29.492 22.0178 31.1029 22.6775 32.6575C21.1188 32.1867 19.5262 31.4228 18.1602 30.6484Z" fill="#81B0C4"/>
<path fill-rule="evenodd" clip-rule="evenodd" d="M23.6416 39.9515C23.6017 40.9036 23.7351 42.4305 23.7796 43.4293C24.4114 43.4301 24.6822 43.2908 25.1537 43.1314C25.2069 41.9562 24.7823 40.869 24.66 39.7959C24.4104 39.7291 23.9523 39.9721 23.6416 39.9515ZM13.8049 34.5367C14.2214 38.3739 14.8248 41.5995 15.9314 44.9974C18.3875 45.7446 21.3483 45.8097 23.5192 45.1354C23.1206 43.2177 23.2948 40.8829 23.0618 38.8363C22.8862 37.2981 22.9757 35.7504 22.735 34.1811C20.1045 33.6327 16.3864 34.0529 13.8049 34.5367ZM23.357 34.2051C23.3348 35.8531 23.4306 37.4787 23.5562 39.1287C24.1878 39.0337 24.6163 38.9703 25.2031 38.8414C25.0126 37.2529 25.036 35.4655 24.6479 34.0603C24.1993 34.0646 23.8043 34.0551 23.357 34.2051ZM26.5608 33.9395C26.2611 33.8707 25.9121 33.9368 25.6257 33.9424C25.7603 35.2858 26.0869 36.7682 26.2019 38.1783C26.6525 38.1923 26.8932 37.9794 27.2638 37.9078C27.2836 36.67 27.1559 34.9647 26.5608 33.9395ZM31.4118 38.3805C32.351 38.152 32.9416 36.9994 32.6789 35.8157C32.5026 35.0202 32.1886 33.5222 31.8526 33.0133C31.6044 32.6368 30.9311 32.144 30.3936 32.4889C29.5192 33.05 27.9787 33.2129 27.341 33.892C27.6608 34.9587 27.76 36.4239 27.8919 37.7755C28.9843 37.8438 30.3284 37.4743 31.237 37.8664C30.6027 38.0722 29.7797 38.0739 29.2317 38.3739C29.6796 38.5906 30.7281 38.5468 31.4118 38.3805ZM22.6778 32.6574C22.0181 31.1029 21.4191 29.492 20.434 28.2394C19.4797 28.8807 18.4287 29.4838 18.1605 30.6484C19.5266 31.4228 21.1192 32.1867 22.6778 32.6574ZM24.304 27.8436C24.2416 29.3983 24.0645 31.4376 23.651 32.656C24.6374 31.3974 25.433 29.9319 26.2645 28.5049C25.9101 27.9349 25.1692 27.4379 24.304 27.8436ZM22.4606 27.1873C22.0869 27.147 21.7697 27.6178 21.2837 27.4142C21.1724 27.5375 21.0712 27.6711 20.9577 27.7915C22.0309 29.0875 22.5187 30.9263 23.3476 32.4493C23.7924 30.9863 23.7412 29.3835 23.8392 27.7866C23.228 27.8255 22.889 27.2329 22.4606 27.1873ZM21.2752 25.6197C21.2354 26.0636 21.3384 26.2088 21.4275 26.7176C22.8837 27.1737 22.6295 24.715 21.2752 25.6197ZM19.6605 25.0885C19.033 24.745 18.0904 24.3709 17.28 24.216C16.2754 24.0234 16.3695 25.589 16.4121 26.523C16.4456 27.2625 16.8294 28.0445 16.9961 28.5357C17.0743 28.7651 17.092 29.0085 17.2877 29.0541C17.6336 29.1349 18.7748 28.6776 19.1 28.4999C19.7877 28.1242 20.3212 27.5276 20.9053 27.1269C20.9129 26.932 20.9203 26.7373 20.9281 26.5424C20.5769 26.367 20.1711 26.2426 19.6556 26.22C20.0053 26.0437 20.5197 26.0463 20.8384 25.8365C20.8415 25.7584 20.8447 25.6805 20.8474 25.6031C20.2657 25.5583 20.0439 25.2986 19.6605 25.0885ZM13.6673 23.9978C13.1465 24.5275 15.1279 25.2496 15.7587 25.2885C15.7552 24.9533 15.9494 24.6373 15.9103 24.3968C15.161 24.265 14.1763 24.352 13.6673 23.9978ZM20.0823 24.2466C20.0798 24.2983 20.0125 24.2795 20.0015 24.3216C20.6715 24.8463 21.1691 24.9548 22.0811 24.9096C22.4923 24.6105 22.857 24.2608 23.2852 23.9808C22.2994 24.069 21.0585 24.6825 20.0823 24.2466ZM25.9706 26.0356C25.9424 25.4471 25.7881 24.2368 25.4251 24.0249C24.6631 23.5792 23.3085 24.9247 22.7347 25.1299C22.7971 25.31 22.9001 25.4527 22.9081 25.6828C23.2475 25.5991 23.6607 25.6564 23.9548 25.8013C23.6147 25.8394 23.2376 25.8369 23.0126 25.9992C22.9301 26.2381 23.0328 26.5635 22.9779 26.8951C23.7852 27.1233 24.7073 27.2448 25.7279 27.2748C25.9264 27.0163 25.994 26.5237 25.9706 26.0356ZM12.7906 24.5102C12.6271 24.3934 11.5208 22.9511 11.3692 23.011C9.36745 23.802 7.4957 25.1697 5.82308 26.4634C7.41782 29.8921 8.06157 34.0928 8.17532 38.1417C10.0022 38.9978 11.6068 40.232 14.0858 40.3609C13.7989 38.3272 13.537 36.5128 13.3742 34.5982C12.7513 34.3351 11.8577 34.6101 11.2748 34.5166C11.2698 33.8127 12.165 34.2084 12.2396 33.7351C12.2958 33.3771 11.747 33.3499 11.9257 32.7862C12.3814 32.9522 12.6207 33.3188 13.1067 33.4564C13.5508 32.483 13.1005 30.7607 13.1645 29.947C13.1766 29.7943 13.2406 29.1007 13.5821 29.2224C13.8844 29.3301 13.5649 31.067 13.598 31.837C13.6282 32.5464 13.5125 33.2329 13.7992 33.6783C16.1947 33.3516 18.6289 33.1404 21.2208 33.0691C20.6506 32.824 19.9732 32.592 19.2305 32.1725C18.8279 31.9451 17.5588 31.4719 17.4426 31.0888C17.2573 30.4782 17.929 30.153 18.0439 29.6296C16.8347 30.2904 16.5988 28.9962 16.3127 28.0794C16.0536 27.2489 15.906 26.6286 15.8425 26.1497C14.8008 25.6521 13.6872 25.1482 12.7906 24.5102ZM24.9126 23.1854C26.5805 22.3751 26.8811 26.214 26.2273 27.4507C26.3284 27.8196 26.6759 27.9608 26.8177 28.2924C25.887 29.9629 24.8533 31.5224 23.9036 33.1733C24.61 32.7327 25.6191 33.0945 26.4504 32.7647C26.7542 32.6442 26.9742 31.9472 27.2043 31.3896C27.8371 29.8556 28.5015 27.9215 28.797 26.4576C28.8638 26.124 29.0457 25.3972 29.0049 25.1003C28.9322 24.5687 28.2124 24.1746 27.8463 23.8459C27.1718 23.2388 26.747 22.7045 26.0435 22.1368C25.7582 22.5588 25.1459 22.8423 24.9126 23.1854ZM8.97625 8.36547C8.18152 9.24164 8.34788 10.8833 8.44409 12.0513C9.88058 11.1458 11.7872 12.1229 11.7692 13.663C12.4551 13.6447 12.0255 12.8047 11.9014 12.2636C11.496 10.496 12.5844 8.57575 11.9507 6.95938C10.7204 7.05286 9.70965 7.55639 8.97625 8.36547ZM14.6627 3.28025C12.8635 3.79119 10.5577 5.1011 9.81842 6.72054C10.3909 6.6372 10.7883 6.34791 11.353 6.31211C11.5665 6.29819 11.8461 6.40179 12.0914 6.34068C12.5802 6.21918 12.9927 5.12099 13.3615 4.71238C13.721 4.31335 14.1531 4.14286 14.4488 3.77908C14.6387 3.68724 14.9196 3.69357 14.9304 3.40771C14.8481 3.31948 14.7614 3.25223 14.6627 3.28025ZM24.0283 3.76082C22.1609 2.70512 19 1.91104 17.0136 2.90328C15.4108 3.70405 13.2441 5.02896 12.5055 6.70789C13.1955 8.32805 12.3011 9.81261 12.244 11.4575C12.2137 12.3328 12.6553 13.0969 12.6891 14.0497C12.453 14.4401 11.7315 14.4881 11.2321 14.4614C11.064 13.6185 10.7697 12.6711 9.90349 12.576C8.67774 12.4417 7.78152 13.4581 7.72583 14.5203C7.65994 15.7695 8.68337 17.8398 10.134 17.6961C10.6943 17.6406 10.832 17.0778 11.4425 17.0836C11.7735 17.7451 10.9321 17.9528 10.8455 18.426C10.823 18.5482 10.9153 19.0259 10.969 19.2499C11.2325 20.3407 11.8199 21.7524 12.398 22.5828C13.1317 23.6362 14.5733 23.7949 16.1242 23.8981C16.4012 23.3002 17.4216 23.3494 18.0865 23.5058C17.2897 23.1896 16.5489 22.423 15.9349 21.7444C15.2297 20.9659 14.5154 20.1308 14.4793 19.1132C15.8119 20.9657 16.9129 22.5835 19.3362 23.3984C21.1699 24.0146 23.3114 23.116 24.7203 22.1247C25.3049 21.7126 25.6539 21.0588 26.0694 20.4604C27.6243 18.2193 28.3499 15.0206 28.1904 11.9202C28.1247 10.6416 28.1276 9.3673 27.6994 8.50705C27.2519 7.60756 25.7383 6.80281 24.8524 7.61642C24.6882 6.7417 25.5891 6.20074 26.6474 6.51551C25.8928 5.53973 25.1008 4.36723 24.0283 3.76082ZM27.5074 32.6108C28.9666 31.884 31.6931 30.6544 32.608 32.6135C32.9456 33.3357 33.3417 34.5564 33.5165 35.3019C33.7635 36.3536 33.2487 38.5641 32.1699 38.917C31.2169 39.2287 30.1051 39.2097 28.9573 38.9787C28.8221 38.866 28.6716 38.6697 28.5664 38.465C27.7468 38.4331 26.9794 38.5091 26.332 38.8466C26.3933 39.454 25.9834 39.5514 25.599 39.6765C25.3141 40.8085 26.1691 42.2868 25.9644 43.319C25.8184 44.0543 24.9155 44.168 24.2518 44.3056C24.2302 44.7142 24.2809 45.0554 24.3262 45.4011C24.1744 45.9613 23.4938 46.2803 22.8489 46.3584C20.7271 46.6141 17.5054 46.7289 15.4644 45.9935C14.8949 44.5938 14.4463 42.8914 13.9719 41.2931C11.9814 41.5061 10.3715 40.4325 8.85382 39.7291C8.32835 39.485 7.60144 39.3506 7.40513 38.9315C7.21482 38.5257 7.2927 37.7481 7.24548 37.0135C7.1253 35.1373 7.02239 33.3277 6.52792 31.4067C6.30591 30.5446 5.91893 29.784 5.64897 28.9533C5.39945 28.1835 4.9635 27.2321 4.8498 26.4644C4.68121 25.3267 5.75047 25.2634 6.43418 24.7703C7.49111 24.0079 8.32074 23.5863 9.46542 22.8981C9.80445 22.6944 10.8269 22.1785 10.9432 21.941C11.1743 21.47 10.5463 20.8059 10.3784 20.4367C10.1128 19.8529 9.97432 19.357 9.93626 18.7809C8.97603 18.6289 8.24813 18.0563 7.80844 17.4106C7.08111 16.3421 6.5767 14.3652 7.20599 12.8615C7.25535 12.743 7.50147 12.5102 7.53778 12.3283C7.60939 11.9701 7.403 11.4939 7.39017 11.1129C7.32406 9.15847 7.7202 7.47448 9.03334 6.88507C9.56643 4.75722 11.4744 4.04974 13.272 2.99223C13.9439 2.597 14.6847 2.34442 15.4497 2.06237C18.1939 1.05042 22.4043 1.24099 24.6818 2.96692C25.6476 3.69881 27.1913 5.24412 27.7434 6.36292C29.2018 9.31667 29.0982 14.2531 28.0781 17.8462C27.941 18.3286 27.7422 19.0377 27.4645 19.6171C27.2708 20.0218 26.6691 20.8314 26.7421 21.1887C26.8174 21.558 28.1142 22.5447 28.3923 22.8133C28.893 23.2973 29.8443 23.9397 29.9214 24.5505C30.0042 25.2005 29.6355 26.0896 29.4488 26.7168C28.8245 28.81 28.2153 30.7448 27.5074 32.6108Z" fill="#231F20"/>
<path fill-rule="evenodd" clip-rule="evenodd" d="M17.7713 18.1216C17.8505 18.016 18.2857 17.8557 18.8947 18.1495C18.8947 18.1495 18.173 18.2701 18.233 19.4758L17.9322 19.4154C17.9322 19.4154 17.6214 18.3221 17.7713 18.1216Z" fill="#F7E4CD"/>
<path fill-rule="evenodd" clip-rule="evenodd" d="M23.0465 28.4855C23.0465 28.6685 22.8983 28.8169 22.7155 28.8169C22.5329 28.8169 22.3848 28.6685 22.3848 28.4855C22.3848 28.3025 22.5329 28.1539 22.7155 28.1539C22.8983 28.1539 23.0465 28.3025 23.0465 28.4855Z" fill="#1D1919"/>
<path fill-rule="evenodd" clip-rule="evenodd" d="M23.3765 30.0221C23.3765 30.2051 23.2284 30.3535 23.0456 30.3535C22.863 30.3535 22.7148 30.2051 22.7148 30.0221C22.7148 29.8392 22.863 29.6906 23.0456 29.6906C23.2284 29.6906 23.3765 29.8392 23.3765 30.0221Z" fill="#1D1919"/>
<path d="M141.708 31.8389C140.888 31.8389 140.084 31.7161 139.297 31.4704C138.519 31.2332 137.914 30.9791 137.483 30.708L137.102 31.5721H136.112L135.947 26.8325H136.874C137 27.2137 137.212 27.6457 137.508 28.1285C137.804 28.6029 138.143 29.0307 138.523 29.4119C138.921 29.7931 139.373 30.115 139.881 30.3776C140.397 30.6402 140.947 30.7715 141.531 30.7715C142.3 30.7715 142.871 30.6233 143.244 30.3268C143.624 30.0218 143.815 29.5559 143.815 28.9291C143.815 28.5902 143.73 28.3107 143.561 28.0904C143.392 27.8702 143.159 27.6796 142.863 27.5186C142.533 27.3492 142.169 27.2052 141.772 27.0866C141.383 26.968 140.9 26.824 140.325 26.6546C139.75 26.4851 139.255 26.3157 138.84 26.1463C138.434 25.9684 138.011 25.6931 137.571 25.3204C137.191 24.99 136.886 24.5918 136.658 24.1259C136.429 23.66 136.315 23.1052 136.315 22.4614C136.315 21.2669 136.814 20.3012 137.813 19.5642C138.819 18.8272 140.135 18.4587 141.759 18.4587C142.529 18.4587 143.235 18.5392 143.878 18.7002C144.529 18.8526 145.075 19.0221 145.515 19.2084L145.781 18.4587H146.746L146.949 22.7917H146.048C145.752 21.9107 145.244 21.1526 144.525 20.5172C143.806 19.8734 143.032 19.5515 142.203 19.5515C141.552 19.5515 141.04 19.6871 140.668 19.9581C140.295 20.2292 140.109 20.6062 140.109 21.089C140.109 21.7328 140.38 22.1987 140.921 22.4868C141.471 22.7748 142.237 23.0459 143.218 23.3C144.732 23.6897 145.841 24.2233 146.543 24.901C147.245 25.5703 147.596 26.4258 147.596 27.4678C147.596 28.8571 147.05 29.9329 145.959 30.6953C144.876 31.4577 143.459 31.8389 141.708 31.8389Z" fill="black"/>
<path d="M134.64 31.4069H127.001V30.4793C127.162 30.4623 127.357 30.4412 127.585 30.4158C127.814 30.3903 127.987 30.348 128.105 30.2887C128.283 30.1955 128.41 30.06 128.486 29.8821C128.562 29.7042 128.6 29.4416 128.6 29.0943V23.1475C128.6 22.2835 128.44 21.6354 128.118 21.2034C127.805 20.7629 127.34 20.5426 126.722 20.5426C126.384 20.5426 126.067 20.5935 125.771 20.6951C125.483 20.7968 125.2 20.945 124.92 21.1399C124.675 21.3093 124.476 21.4829 124.324 21.6608C124.18 21.8387 124.058 21.9954 123.956 22.131V28.9545C123.956 29.251 123.998 29.5009 124.083 29.7042C124.167 29.899 124.307 30.0473 124.502 30.1489C124.637 30.2252 124.806 30.2929 125.009 30.3522C125.212 30.4115 125.411 30.4539 125.606 30.4793V31.4069H117.891V30.4793C118.102 30.4623 118.314 30.4412 118.525 30.4158C118.745 30.3819 118.931 30.3395 119.083 30.2887C119.354 30.1955 119.54 30.0515 119.642 29.8567C119.743 29.6618 119.794 29.4077 119.794 29.0943V21.699C119.794 21.4363 119.726 21.178 119.591 20.9238C119.456 20.6697 119.278 20.4622 119.058 20.3012C118.906 20.1996 118.711 20.1148 118.474 20.0471C118.246 19.9793 117.992 19.9327 117.713 19.9073V18.9797L123.766 18.6493L123.956 18.8399V20.6824H124.007C124.244 20.4706 124.531 20.2165 124.87 19.92C125.208 19.6235 125.521 19.3821 125.809 19.1957C126.122 18.9924 126.532 18.8188 127.039 18.6748C127.547 18.5307 128.088 18.4587 128.664 18.4587C130.043 18.4587 131.075 18.8526 131.76 19.6405C132.454 20.4198 132.8 21.4575 132.8 22.7536V28.9799C132.8 29.2933 132.847 29.5432 132.94 29.7296C133.033 29.916 133.206 30.0642 133.46 30.1743C133.596 30.2336 133.761 30.2929 133.955 30.3522C134.158 30.4115 134.387 30.4539 134.64 30.4793V31.4069Z" fill="black"/>
<path d="M116.724 31.407H108.704V30.4795C108.924 30.4625 109.14 30.4413 109.351 30.4159C109.563 30.3905 109.744 30.3482 109.897 30.2889C110.167 30.1872 110.358 30.0432 110.468 29.8568C110.578 29.662 110.633 29.4079 110.633 29.0944V21.6991C110.633 21.4026 110.565 21.1443 110.43 20.924C110.294 20.6953 110.125 20.5132 109.922 20.3776C109.77 20.276 109.537 20.1785 109.224 20.0854C108.92 19.9922 108.641 19.9329 108.387 19.9075V18.9799L114.604 18.6495L114.795 18.8401V28.9292C114.795 29.2257 114.858 29.4799 114.985 29.6916C115.112 29.8949 115.294 30.0474 115.531 30.1491C115.7 30.2253 115.886 30.2931 116.089 30.3524C116.292 30.4117 116.504 30.454 116.724 30.4795V31.407ZM114.871 14.0751C114.871 14.7189 114.621 15.2695 114.122 15.727C113.632 16.1759 113.048 16.4004 112.371 16.4004C111.686 16.4004 111.094 16.1759 110.595 15.727C110.104 15.2695 109.859 14.7189 109.859 14.0751C109.859 13.4313 110.104 12.8807 110.595 12.4232C111.094 11.9658 111.686 11.7371 112.371 11.7371C113.056 11.7371 113.644 11.9658 114.135 12.4232C114.626 12.8807 114.871 13.4313 114.871 14.0751Z" fill="black"/>
<path d="M108.564 31.407H102.588C101.852 30.111 101.179 29.0139 100.57 28.116C99.9609 27.2096 99.3856 26.371 98.8442 25.6001L98.0828 26.2481V29.0182C98.0828 29.3231 98.1251 29.573 98.2097 29.7679C98.3028 29.9627 98.4762 30.1067 98.73 30.1999C98.8823 30.2677 99.0599 30.327 99.2629 30.3778C99.466 30.4286 99.669 30.4625 99.872 30.4795V31.407H92.0174V30.4795C92.2289 30.4625 92.4403 30.4413 92.6518 30.4159C92.8633 30.382 93.0494 30.3397 93.2102 30.2889C93.4809 30.1957 93.6627 30.0517 93.7558 29.8568C93.8573 29.662 93.9081 29.4079 93.9081 29.0944V14.9264C93.9081 14.6469 93.8446 14.3589 93.7177 14.0624C93.5993 13.7574 93.4217 13.5287 93.1848 13.3762C93.0241 13.2746 92.783 13.1899 92.4615 13.1221C92.14 13.0543 91.8482 13.012 91.5859 12.995V12.0674L97.8925 11.7371L98.0828 11.9404V25.0537C98.7088 24.4946 99.411 23.8466 100.189 23.1096C100.976 22.3726 101.606 21.7627 102.08 21.2798C102.359 20.9918 102.511 20.7758 102.537 20.6318C102.571 20.4793 102.588 20.3861 102.588 20.3522C102.588 20.1997 102.452 20.0727 102.181 19.971C101.919 19.8694 101.522 19.7804 100.989 19.7042V18.802H107.435V19.6788C106.589 19.9159 105.942 20.1404 105.493 20.3522C105.053 20.5555 104.571 20.8308 104.047 21.1781C103.7 21.4069 103.362 21.6483 103.032 21.9024C102.71 22.1481 102.338 22.4573 101.915 22.83C102.744 24.0329 103.51 25.1469 104.212 26.1719C104.914 27.1969 105.65 28.2812 106.42 29.4248C106.682 29.8229 107.008 30.0898 107.397 30.2253C107.786 30.3609 108.175 30.4456 108.564 30.4795V31.407Z" fill="black"/>
<path d="M91.0915 31.4069H83.4526V30.4793C83.6133 30.4623 83.8079 30.4412 84.0363 30.4158C84.2647 30.3903 84.4381 30.348 84.5566 30.2887C84.7342 30.1955 84.8611 30.06 84.9372 29.8821C85.0134 29.7042 85.0515 29.4416 85.0515 29.0943V23.1475C85.0515 22.2835 84.8907 21.6354 84.5693 21.2034C84.2563 20.7629 83.791 20.5426 83.1734 20.5426C82.8351 20.5426 82.5178 20.5935 82.2217 20.6951C81.9341 20.7968 81.6507 20.945 81.3716 21.1399C81.1262 21.3093 80.9274 21.4829 80.7752 21.6608C80.6314 21.8387 80.5087 21.9954 80.4072 22.131V28.9545C80.4072 29.251 80.4495 29.5009 80.5341 29.7042C80.6187 29.899 80.7582 30.0473 80.9528 30.1489C81.0882 30.2252 81.2574 30.2929 81.4604 30.3522C81.6634 30.4115 81.8622 30.4539 82.0568 30.4793V31.4069H74.3417V30.4793C74.5532 30.4623 74.7647 30.4412 74.9762 30.4158C75.1961 30.3819 75.3822 30.3395 75.5345 30.2887C75.8052 30.1955 75.9913 30.0515 76.0928 29.8567C76.1943 29.6618 76.2451 29.4077 76.2451 29.0943V21.699C76.2451 21.4363 76.1774 21.178 76.0421 20.9238C75.9067 20.6697 75.7291 20.4622 75.5091 20.3012C75.3569 20.1996 75.1623 20.1148 74.9254 20.0471C74.697 19.9793 74.4432 19.9327 74.1641 19.9073V18.9797L80.2168 18.6493L80.4072 18.8399V20.6824H80.4579C80.6948 20.4706 80.9824 20.2165 81.3208 19.92C81.6592 19.6235 81.9722 19.3821 82.2598 19.1957C82.5728 18.9924 82.9831 18.8188 83.4907 18.6748C83.9982 18.5307 84.5396 18.4587 85.1149 18.4587C86.4938 18.4587 87.5259 18.8526 88.2111 19.6405C88.9048 20.4198 89.2516 21.4575 89.2516 22.7536V28.9799C89.2516 29.2933 89.2981 29.5432 89.3912 29.7296C89.4842 29.916 89.6577 30.0642 89.9114 30.1743C90.0468 30.2336 90.2118 30.2929 90.4063 30.3522C90.6093 30.4115 90.8378 30.4539 91.0915 30.4793V31.4069Z" fill="black"/>
<path d="M73.1108 28.37C72.8147 28.8528 72.4552 29.3103 72.0322 29.7423C71.6177 30.1659 71.1439 30.5301 70.611 30.8351C70.0442 31.157 69.4689 31.3984 68.8852 31.5594C68.31 31.7288 67.6459 31.8135 66.893 31.8135C65.641 31.8135 64.5582 31.6356 63.6446 31.2798C62.7394 30.924 61.9907 30.4454 61.3986 29.844C60.8064 29.2425 60.3623 28.5352 60.0662 27.722C59.7786 26.9003 59.6348 26.0108 59.6348 25.0535C59.6348 24.1895 59.7913 23.3636 60.1043 22.5757C60.4257 21.7794 60.8783 21.0721 61.462 20.4537C62.0373 19.8523 62.7606 19.3652 63.6319 18.9924C64.5117 18.6197 65.493 18.4333 66.5758 18.4333C67.7601 18.4333 68.733 18.5774 69.4943 18.8654C70.2557 19.1534 70.8859 19.5515 71.385 20.0598C71.8672 20.5427 72.2183 21.1145 72.4382 21.7752C72.6582 22.4275 72.7682 23.1137 72.7682 23.8337V24.6596H64.1902C64.1902 26.3962 64.5244 27.7177 65.1927 28.6241C65.861 29.5305 66.9226 29.9837 68.3777 29.9837C69.1729 29.9837 69.8877 29.7677 70.5222 29.3357C71.1566 28.8952 71.698 28.3403 72.1464 27.6711L73.1108 28.37ZM68.2635 23.5414C68.2635 23.0332 68.2381 22.5122 68.1873 21.9785C68.1366 21.4448 68.0477 21.0086 67.9209 20.6697C67.777 20.2716 67.5782 19.9709 67.3245 19.7676C67.0791 19.5642 66.7661 19.4626 66.3855 19.4626C65.7341 19.4626 65.2138 19.793 64.8247 20.4537C64.4355 21.1145 64.224 22.1607 64.1902 23.5923L68.2635 23.5414Z" fill="black"/>
<path d="M58.0487 14.3673C57.7103 14.4097 57.4227 14.4521 57.1858 14.4944C56.949 14.5368 56.6825 14.5961 56.3864 14.6723C56.0396 14.7655 55.8154 14.9307 55.7139 15.1679C55.6208 15.4051 55.5743 15.6761 55.5743 15.9811V25.9177C55.5743 26.8326 55.3882 27.6713 55.016 28.4337C54.6522 29.1961 54.1489 29.8356 53.506 30.3524C52.8546 30.8606 52.1271 31.2419 51.3234 31.496C50.5198 31.7586 49.6611 31.8899 48.7475 31.8899C47.1656 31.8899 45.8882 31.5087 44.9153 30.7463C43.9509 29.9839 43.4688 28.9377 43.4688 27.6077C43.4688 26.8199 43.6887 26.1676 44.1286 25.6509C44.5769 25.1342 45.1903 24.8758 45.9685 24.8758C46.7045 24.8758 47.2882 25.0918 47.7197 25.5238C48.1595 25.9559 48.3795 26.4895 48.3795 27.1249C48.3795 27.667 48.1892 28.1711 47.8085 28.637C47.4363 29.0944 47.0091 29.518 46.5269 29.9076V30.0728C46.603 30.2423 46.768 30.3863 47.0217 30.5049C47.2755 30.6235 47.5335 30.6828 47.7958 30.6828C48.8109 30.6828 49.6061 30.3185 50.1814 29.59C50.7651 28.8615 51.0569 27.7602 51.0569 26.2862V16.1082C51.0569 15.8032 51.0104 15.5491 50.9173 15.3458C50.8243 15.1425 50.6001 14.9646 50.2448 14.8121C49.991 14.702 49.6823 14.6088 49.3185 14.5325C48.9632 14.4563 48.6671 14.4012 48.4303 14.3673V13.3762H58.0487V14.3673Z" fill="black"/>
</svg>
