<svg width="92" height="24" viewBox="0 0 92 24" fill="none" xmlns="http://www.w3.org/2000/svg">
    <path d="M3.98569 16.083V8.06531H0V20.0687H12.0034V16.083H3.98569Z" fill="#0094FF" />
    <path
        d="M19.9748 0.046875H0V6.07176H3.98569V4.07891H15.9891V16.0823H13.9963V20.068H19.9748V0.046875Z"
        fill="#003778" />
    <path d="M24.0117 0H30.1756V14.9232H39.0739V20.0675H24.0117V0Z" fill="#003778" />
    <path d="M43.0117 0H58.5374V5.14432H49.222V7.64697H57.2397V12.4205H49.222V20.0675H43.0117V0Z"
        fill="#003778" />
    <path
        d="M67.664 9.40862L61.083 0.046875H68.3128L71.3253 5.46927L74.2914 0.046875H81.1041L74.7085 9.45496L81.8456 20.0217H74.4304L71.0472 14.0895L67.5249 20.068H60.4805L67.664 9.40862Z"
        fill="#0094FF" />
    <path fill-rule="evenodd" clip-rule="evenodd" d="M90.0547 20.0675V0H90.5564V20.0675H90.0547Z"
        fill="#CCCCCC" />
</svg>